<svg width="151" height="31" viewBox="0 0 151 31" fill="none" xmlns="http://www.w3.org/2000/svg">
<path d="M19.0018 18.0769H6.90857V30.5691H0.610001V0H20.5135V5.10184H6.90857V12.996H19.0018V18.0769Z" fill="#CB1D1D"/>
<path d="M35.6737 24.2705H24.6302L22.5307 30.5691H15.8332L27.2126 0H33.0493L44.4917 30.5691H37.7942L35.6737 24.2705ZM26.3308 19.1686H33.9731L30.131 7.72624L26.3308 19.1686Z" fill="#CB1D1D"/>
<path d="M55.2009 18.3078L51.9257 21.835V30.5691H45.6271V0H51.9257V13.8569L54.6971 10.0567L62.4863 0H70.2335L59.379 13.5839L70.5485 30.5691H63.0532L55.2009 18.3078Z" fill="#CB1D1D"/>
<path d="M89.5928 17.3211H77.4996V25.5092H91.6923V30.5691H71.201V0H91.6504V5.10184H77.4996V12.3872H89.5928V17.3211Z" fill="#CB1D1D"/>
<path d="M99.9661 25.5092H113.34V30.5691H93.6676V0H99.9661V25.5092Z" fill="#CB1D1D"/>
<path d="M121.95 30.5691H115.651V0H121.95V30.5691Z" fill="#CB1D1D"/>
<path d="M137.404 10.5396L143.136 0H150.379L141.477 15.1586L150.61 30.5691H143.283L137.404 19.8615L131.525 30.5691H124.198L133.331 15.1586L124.429 0H131.672L137.404 10.5396Z" fill="#CB1D1D"/>
</svg>
